<svg version="1.1" id="Layer_1" xmlns="http://www.w3.org/2000/svg" x="0" y="0" viewBox="0 0 362.4 72" xml:space="preserve"><style>.st2{fill:#59595b}</style><path d="M102.2 40.5v-15c-2.7-11.6-11.6-20.7-23-23.8-16.4 2.7-26.6 8.1-35.1 12.6-3.7 5.3-5.9 11.7-5.9 18.7 0 12.7 7.2 23.6 17.7 29 3.5.1 6.7 0 9.4 0 5.9 0 11.3.7 16 1.8 10.4-3.7 18.4-12.4 20.9-23.3z" fill="#fff"/><path d="M102.3 25.5v8.1l-.7.5c-.4.3-.9.5-1.5.5s-1.1-.2-1.5-.5l-8.2-5.8c-.4-.3-.8-.8-1-1.4-.2-.6-.2-1.2 0-1.7l3.3-9.5c.2-.5.5-.9 1-1.3.5-.3 1-.5 1.5-.5h1.9c-4-5.5-9.7-9.7-16.3-11.9l.6 1.7c.1.5.2 1.1 0 1.6-.2.6-.5 1-.9 1.3l-8.1 6c-.4.3-1 .5-1.6.5-.6 0-1.2-.2-1.6-.5l-8-6.1-.3-.3c5.2-1.9 11.2-3.6 18.5-4.8C86 .3 93.5-.3 102.4-.3l-.1 25.8c-.1 0 0 0 0 0zm-23 16.6l3.8-11.5c.2-.5.2-1.1 0-1.6s-.5-1-.9-1.3l-10-7.6c-.4-.3-1-.5-1.6-.5-.6 0-1.1.2-1.6.5l-10 7.5c-.4.3-.8.8-.9 1.3-.2.5-.1 1.1 0 1.6L61.9 42c.2.5.5 1 .9 1.3.5.3 1 .5 1.6.5h12.4c.5 0 1.1-.2 1.6-.5.4-.2.8-.7.9-1.2zm16.9 8.3c-.2-.5-.5-1-.9-1.3-.5-.4-1-.5-1.5-.5l-10.1-.2c-.6 0-1.1.1-1.6.5-.5.3-.8.8-1 1.4l-3 9.6c-.1.5-.1 1.1 0 1.6.2.6.5 1 1 1.3l.9.7 1.2.3c13 2.9 21 8.3 21 8.3V40.5c-1 4.3-2.9 8.3-5.5 11.7l-.5-1.8zm-36.1-.2c-.1-.5-.5-1-1-1.4s-1-.5-1.6-.5l-10.1.1c-.5 0-1.1.2-1.5.5-.4.4-.8.8-.9 1.3l-.6 1.9c-3.9-5.4-6.3-12-6.2-19.2v-.1l1.6 1.2c.4.3 1 .5 1.5.5.6 0 1.1-.2 1.5-.5l8.3-5.8c.5-.3.8-.8 1-1.4.2-.6.2-1.2 0-1.7l-3.2-9.5c-.2-.5-.5-1-1-1.3s-1-.5-1.5-.5H45c-.3.1-.5.3-.8.4-8 4.4-14.5 7.8-23.5 7.8C6.7 22 0 16 0 16c8.5 41.5 36.7 45.7 55.9 46h6.9c.1-.1.2-.3.3-.5.2-.5.2-1.1 0-1.6l-3-9.7z" fill="#006937"/><g><path class="st2" d="M112.7 0h47.7v13h-32.1v17.8h30.2v13h-30.2V72h-15.6V0zM168.4 0H197c6.2 0 11.1.8 14.8 2.3s6.4 3.6 8 6.4 2.5 6 2.5 9.8c0 3.4-.8 6.3-2.3 8.9-1.5 2.6-3.9 4.8-7.3 6.5 4.2 1.7 7.2 4.1 9 7.1s2.7 6.3 2.7 10.1c0 6.3-2.2 11.4-6.5 15.2-4.3 3.8-11.1 5.7-20.5 5.7h-29.1V0h.1zm27.4 28.9c4 0 6.8-.7 8.6-2.2 1.8-1.4 2.7-3.6 2.7-6.5 0-3-.9-5.1-2.8-6.4-1.9-1.3-5-2-9.3-2h-11.8v17l12.6.1zm.4 31.2c4.9 0 8.3-.9 10.1-2.6s2.8-4.2 2.8-7.3c0-3.4-1-5.9-2.9-7.5-2-1.6-5.2-2.5-9.7-2.5h-13.3v19.9h13zM232.7 0h16c7.2 0 12.7 1.7 16.5 5.1s5.7 8.3 5.7 14.8c0 4.2-.9 7.9-2.8 11.1-1.8 3.2-4.5 5.6-8 7.3L273.9 72h-6.5l-12.9-32.1c-1.7.5-3.7.7-6.1.7h-9.7V72h-6.1l.1-72zm15.6 35.3c11 0 16.5-5.1 16.5-15.2 0-9.8-5.5-14.7-16.6-14.7h-9.4v29.9h9.5zM282.1 0h34.8v5.4h-28.6V32h27v5.4h-27v29h29.9l-1 5.4h-35.1V0zM328.8 0h33.6v5.4H335V33h25.7v5.4H335V72h-6.2V0z"/></g></svg>